<svg xmlns="http://www.w3.org/2000/svg" width="80" height ="80" viewBox="0 0 24 24">
  <path fill="#666" d="M12 0 1 6v12.131L12 24l11-5.869V6.065L12 0zM3 11.74l2 1.057v2.066l-2-1.056V11.74zm9.005-.876L9.94 9.737l1.778-.988L13.8 9.906l-1.795.958zM13 12.6l2-1.067v2.279l-2 1.056V12.6zm1.852-3.255-2.104-1.168 1.884-1.047 2.144 1.188-1.924 1.027zm-2.099-4.4 2.029-1.127 1.884 1.039-2.034 1.13-1.879-1.042zm.849 1.614-1.883 1.046-1.877-1.043 1.881-1.045 1.879 1.042zm-4.79-.569-1.791-.995 1.895-1.033 1.776.985-1.88 1.043zm1.877 2.187L8.9 9.17 7.007 8.138l1.806-1.003 1.876 1.042zM6 13.325l2 1.056v2.066l-2-1.056v-2.066zm2 4.253v2.021l-2-1.067v-2.011l2 1.057zm-2-5.384V9.866l2 1.091v2.294l-2-1.057zm5 .399v2.242l-2-1.056v-2.276l2 1.09zm-2 2.316 2 1.056v2.066l-2-1.056v-2.066zm4 1.09 2-1.056v2.066l-2 1.056v-2.066zm5 .556v1.978L16 19.6v-1.988l2-1.057zm-2-.075v-2.066l2-1.056v2.066l-2 1.056zm0-3.196V11l2-1.068v2.295l-2 1.057zm3-.454 2-1.056v2.066l-2 1.056V12.83zm2-2.187-2 1.056V9.398l2-1.067v2.312zm-3.174-2.885-2.164-1.2 2.019-1.121-.017-.03 2.246 1.239-2.084 1.112zm-4.078-4.51-2.026 1.126-1.768-.979 2.041-1.113 1.753.966zM5.981 5.562l1.802 1.001-1.815 1.008L4.133 6.57l1.848-1.008zM5 9.321v2.346L3 10.61V8.23l2 1.091zm-2 5.616 2 1.056v2.005l-2-1.067v-1.994zm6 5.196v-2.027l2 1.056V21.2l-2-1.067zm4-.938 2-1.056v1.994L13 21.2v-2.005zm6-1.196v-1.972l2-1.056v1.961l-2 1.067z"/>
</svg>
